# AST/ASF file generated using VICON BodyLanguage
# -----------------------------------------------
:version 1.10
:name VICON
:units
  mass 1.0
  length 0.45
  angle deg
:documentation
   .ast/.asf automatically generated from VICON data using
   VICON BodyBuilder and BodyLanguage model FoxedUp or BRILLIANT.MOD
:root
   order TX TY TZ RX RY RZ
   axis XYZ
   position 0 0 0  
   orientation 0 0 0 
:bonedata
  begin
     id 1 
     name lhipjoint
     direction 0.710087 -0.641647 0.289942 
     length 2.79038 
     axis 0 0 0  XYZ
  end
  begin
     id 2 
     name lfemur
     direction 0.34202 -0.939693 0  
     length 7.2706  
     axis 0 0 20  XYZ
    dof rx ry rz
    limits (-160.0 20.0)
           (-70.0 70.0)
           (-60.0 70.0)
  end
  begin
     id 3 
     name ltibia
     direction 0.34202 -0.939693 0   
     length 7.86328   
     axis 0 0 20   XYZ
    dof rx
    limits (-10.0 170.0)
  end
  begin
     id 4 
     name lfoot
     direction 0.0541246 -0.148706 0.987399   
     length 2.37542   
     axis -90 7.62852e-016 20   XYZ
    dof rx rz
    limits (-45.0 90.0)
           (-70.0 20.0)
  end
  begin
     id 5 
     name ltoes
     direction 1.53554e-011 -4.21866e-011 1   
     length 1.19593   
     axis -90 7.62852e-016 20   XYZ
    dof rx
    limits (-90.0 20.0)
  end
  begin
     id 6 
     name rhipjoint
     direction -0.675762 -0.671724 0.303533   
     length 2.66544  
     axis 0 0 0  XYZ 
  end
  begin
     id 7 
     name rfemur
     direction -0.34202 -0.939693 0   
     length 8.11844   
     axis 0 0 -20   XYZ
    dof rx ry rz
    limits (-160.0 20.0)
           (-70.0 70.0)
           (-70.0 60.0)
  end
  begin
     id 8 
     name rtibia
     direction -0.34202 -0.939693 0   
     length 7.97082   
     axis 0 0 -20   XYZ
    dof rx
    limits (-10.0 170.0)
 end
 begin
     id 9 
     name rfoot
     direction -0.0726228 -0.199474 0.977208   
     length 2.19677  
     axis -90 -7.62852e-016 -20   XYZ
    dof rx rz
    limits (-45.0 90.0)
           (-20.0 70.0)
  end
  begin
     id 10 
     name rtoes
     direction -1.53508e-011 -4.21913e-011 1   
     length 1.10438   
     axis -90 -7.62852e-016 -20   XYZ
    dof rx
    limits (-90.0 20.0)
  end
  begin
     id 11 
     name lowerback
     direction -0.00404436 0.999673 -0.0252643   
     length 2.03972   
     axis 0 0 0   XYZ
    dof rx ry rz
    limits (-20.0 45.0)
           (-30.0 30.0)
           (-30.0 30.0)
  end
  begin
     id 12 
     name upperback
     direction 0.00744643 0.999969 0.00242763   
     length 2.04273   
     axis 0 0 0   XYZ
    dof rx ry rz
    limits (-20.0 45.0)
           (-30.0 30.0)
           (-30.0 30.0)
  end
  begin
     id 13 
     name thorax
     direction 0.00846113 0.999862 0.0143204   
     length 2.03752   
     axis 0 0 0   XYZ
    dof rx ry rz
    limits (-20.0 45.0)
           (-30.0 30.0)
           (-30.0 30.0)
  end
  begin
     id 14 
     name lowerneck
     direction 0.0328213 0.990857 0.130862   
     length 1.37497   
     axis 0 0 0   XYZ
    dof rx ry rz
    limits (-20.0 45.0)
           (-30.0 30.0)
           (-30.0 30.0)
  end
  begin
     id 15 
     name upperneck
     direction -0.0302832 0.999496 0.00956452   
     length 1.35926   
     axis 0 0 0   XYZ
    dof rx ry rz
    limits (-20.0 45.0)
           (-30.0 30.0)
           (-30.0 30.0)
  end
  begin
     id 16
     name head
     direction -0.0130455 0.999856 -0.0108809  
     length 1.44454  
     axis 0 0 0   XYZ
    dof rx ry rz
    limits (-20.0 45.0)
           (-30.0 30.0)
           (-30.0 30.0)
  end
  begin
     id 17 
     name lclavicle
     direction 0.952957 0.278766 0.119006  
     length 3.10112  
     axis 0 0 0   XYZ
    dof ry rz
    limits (-20.0 10.0)
           (0.0 20.0)
  end
  begin
     id 18 
     name lhumerus
     direction 1 -4.48972e-011 -1.63238e-028   
     length 5.82845   
     axis -180 -30 -90   XYZ
    dof rx ry rz
    limits (-60.0 90.0)
           (-90.0 90.0)
           (-90.0 90.0)
  end
  begin
     id 19
     name lradius
     direction 1 -4.48959e-011 1.45401e-026   
     length 3.49691   
     axis -180 -30 -90   XYZ
    dof rx
    limits (-10.0 170.0)
  end
  begin
     id 20
     name lwrist
     direction 1 -4.48945e-011 2.98015e-026   
     length 1.74845   
     axis -1.7599e-014 90 90   XYZ
    dof ry
    limits (-180.0 0.0)
 end
  begin
     id 21 
     name lhand
     direction 1 -4.4902e-011 5.9603e-026   
     length 0.674998   
     axis -3.80318e-014 90 90   XYZ
    dof rx rz
    limits (-90.0 90.0)
           (-45.0 45.0)
  end
  begin
     id 22 
     name lfingers
     direction 1 -4.48979e-011 1.19206e-025   
     length 0.544201   
     axis -7.60636e-014 90 90   XYZ
    dof rx
    limits (0.0 90.0)
  end
  begin
     id 23
     name lthumb
     direction 0.707107 -6.34941e-011 0.707107   
     length 0.781367   
     axis -90 45 2.85299e-015   XYZ
    dof rx rz
    limits (-45.0 45.0)
           (-45.0 45.0)
  end
  begin
     id 24 
     name rclavicle
     direction -0.967632 0.241887 0.0719654   
     length 3.53012  
     axis 0 0 0   XYZ 
    dof ry rz
    limits (-10.0 20.0)
           (-20.0 0.0)
  end
  begin
     id 25 
     name rhumerus
     direction -1 -4.4897e-011 6.87619e-028  
     length 5.45859   
     axis -180 30 90   XYZ
    dof rx ry rz
    limits (-90.0 60.0)
           (-90.0 90.0)
           (-90.0 90.0)
  end
  begin
     id 26 
     name rradius
     direction -1 -4.48967e-011 1.68055e-026   
     length 3.58491   
     axis -180 30 90   XYZ
    dof rx
    limits (-10.0 170.0)
  end
  begin
     id 27 
     name rwrist
     direction -1 -4.48976e-011 2.98015e-026   
     length 1.79245   
     axis -1.7599e-014 -90 -90   XYZ
    dof ry
    limits (-180.0 0.0)
  end
  begin
     id 28
     name rhand
     direction -1 -4.48996e-011 5.9603e-026   
     length 0.683735   
     axis -3.80318e-014 -90 -90   XYZ
    dof rx rz
    limits (-90.0 90.0)
           (-45.0 45.0)
  end
  begin
     id 29
     name rfingers
     direction -1 -4.48924e-011 1.19206e-025   
     length 0.551245   
     axis -7.60636e-014 -90 -90   XYZ
    dof rx
    limits (0.0 90.0)
  end
  begin
     id 30
     name rthumb
     direction -0.707107 -6.3492e-011 0.707107   
     length 0.791481   
     axis -90 -45 -2.85299e-015   XYZ
    dof rx rz
    limits (-45.0 45.0)
           (-45.0 45.0)
  end
:hierarchy
  begin
    root lhipjoint rhipjoint lowerback
    lhipjoint lfemur
    lfemur ltibia
    ltibia lfoot
    lfoot ltoes
    rhipjoint rfemur
    rfemur rtibia
    rtibia rfoot
    rfoot rtoes
    lowerback upperback
    upperback thorax
    thorax lowerneck lclavicle rclavicle
    lowerneck upperneck
    upperneck head
    lclavicle lhumerus
    lhumerus lradius
    lradius lwrist
    lwrist lhand lthumb
    lhand lfingers
    rclavicle rhumerus
    rhumerus rradius
    rradius rwrist
    rwrist rhand rthumb
    rhand rfingers
  end

#!OML:ASF F:\VICON\USERDATA\INSTALL\rory3\rory3.ASF
:FULLY-SPECIFIED
:DEGREES
1125
root 0.18998 17.8602 -23.1944 -187.813 -183.863 175.725
lowerback 17.3487 2.49878 0.181068
upperback -1.05524 3.26603 -0.874766
thorax -10.8602 1.50278 -1.91974
lowerneck -4.93127 3.5178 4.6545
upperneck 2.5493 4.42913 -1.07589
head 1.77683 2.23494 -0.992921
rclavicle 6.73383e-015 -1.51076e-014
rhumerus -33.3653 10.6412 -76.3851
rradius 98.0347
rwrist 0.582813
rhand -25.6189 66.5613
rfingers 7.12502
rthumb 0.913782 36.5835
lclavicle 6.73383e-015 -1.51076e-014
lhumerus -35.4233 -32.882 91.4031
lradius 71.0185
lwrist 37.8421
lhand 153.271 -119.469
lfingers 7.12502
lthumb -180.158 -1350.51
rfemur -17.7642 -0.709966 12.5338
rtibia 51.171
rfoot -19.8511 -4.43478
rtoes 8.58037
lfemur 6.57209 -3.7792 -17.1976
ltibia 24.3687
lfoot -13.7941 -8.22882
ltoes -2.03812
1126
root 0.0394635 17.9054 -22.9658 -188.129 -184.453 176.099
lowerback 18.5208 2.24794 0.99895
upperback -1.749 3.006 -1.77498
thorax -12.2367 1.25879 -3.40089
lowerneck -4.59584 3.45217 5.74838
upperneck 3.21686 4.2696 -0.634908
head 1.94856 2.18928 -1.04746
rclavicle 3.78188e-014 -3.33958e-014
rhumerus -34.3031 8.27284 -75.8315
rradius 98.4263
rwrist -0.543999
rhand -25.8192 66.568
rfingers 7.12502
rthumb 0.720328 36.5895
lclavicle 3.78188e-014 -3.33958e-014
lhumerus -37.1904 -36.4435 91.586
lradius 74.4387
lwrist 37.8538
lhand 153.085 -120.011
lfingers 7.12502
lthumb -180.338 -1530.03
rfemur -17.8146 2.17923 11.3507
rtibia 49.0725
rfoot -19.2721 -5.37808
rtoes 7.24656
lfemur 9.56771 -4.51409 -17.2582
ltibia 20.7086
lfoot -12.8747 -7.89124
ltoes -0.869623
1127
root -0.104403 17.9313 -22.7438 -188.293 -185.115 176.213
lowerback 18.7708 2.07807 1.42457
upperback -2.10627 2.85606 -1.95872
thorax -12.7718 1.13274 -3.83746
lowerneck -3.94769 3.43342 6.0632
upperneck 3.32651 4.26332 -0.504408
head 1.87315 2.19623 -1.06883
rclavicle -3.65764e-014 1.59028e-015
rhumerus -34.3707 6.46233 -74.0353
rradius 98.5058
rwrist -1.58603
rhand -26.4918 66.7711
rfingers 7.12502
rthumb 0.070704 36.7914
lclavicle -3.65764e-014 1.59028e-015
lhumerus -38.4005 -39.1074 92.4391
lradius 77.6176
lwrist 37.0007
lhand 153.688 -123.947
lfingers 7.12502
lthumb -179.756 -1533.97
rfemur -17.9138 5.03297 10.4555
rtibia 47.4277
rfoot -19.5631 -5.10075
rtoes 12.1696
lfemur 12.2909 -5.38315 -17.106
ltibia 17.0941
lfoot -12.2842 -7.09016
ltoes -3.73004
1128
root -0.246584 17.9455 -22.5272 -188.351 -185.999 176.341
lowerback 18.0888 1.71054 0.686271
upperback -1.54537 2.30439 -1.06818
thorax -11.8373 0.991806 -2.21356
lowerneck -5.14296 3.89465 4.85646
upperneck 3.34787 4.89627 -0.871662
head 2.09041 2.48426 -0.936859
rclavicle 4.03533e-014 -2.46493e-014
rhumerus -31.7845 6.25111 -70.6881
rradius 98.3802
rwrist -2.9758
rhand -26.5658 65.9898
rfingers 7.12502
rthumb -0.000738408 36.01
lclavicle 4.03533e-014 -2.46493e-014
lhumerus -37.0882 -39.7921 92.7869
lradius 80.2571
lwrist 36.2012
lhand 153.917 -122.802
lfingers 7.12502
lthumb -179.535 -1532.82
rfemur -18.0352 6.96545 9.63988
rtibia 46.3143
rfoot -19.1372 -5.30259
rtoes 7.7624
lfemur 14.7108 -6.70644 -17.1124
ltibia 13.7908
lfoot -11.6935 -6.18319
ltoes -6.02557
1129
root -0.394025 17.9375 -22.3195 -188.388 -186.941 176.296
lowerback 17.2443 1.53189 0.136888
upperback -1.0595 2.03444 -0.305622
thorax -10.8605 0.943639 -0.946204
lowerneck -5.43859 4.05518 4.27991
upperneck 2.86037 5.15856 -1.36801
head 1.98934 2.58864 -0.984465
rclavicle -1.66731e-014 -6.36111e-015
rhumerus -29.6004 4.98469 -67.3514
rradius 98.2955
rwrist -4.48908
rhand -26.323 65.054
rfingers 7.12502
rthumb 0.233825 35.0743
lclavicle -1.66731e-014 -6.36111e-015
lhumerus -35.97 -41.0351 93.0729
lradius 82.7987
lwrist 35.2328
lhand 153.592 -122.622
lfingers 7.12502
lthumb -179.849 -1532.64
rfemur -18.1026 7.71285 9.19249
rtibia 45.6566
rfoot -18.1854 -4.28276
rtoes 6.32199
lfemur 16.5575 -8.49529 -17.0653
ltibia 11.5643
lfoot -11.4913 -5.04714
ltoes -7.80901
